<?xml version="1.0" standalone="no"?>
<!DOCTYPE svg PUBLIC "-//W3C//DTD SVG 20010904//EN"
 "http://www.w3.org/TR/2001/REC-SVG-20010904/DTD/svg10.dtd">
<svg version="1.0" xmlns="http://www.w3.org/2000/svg"
 width="401.000000pt" height="401.000000pt" viewBox="0 0 401.000000 401.000000"
 preserveAspectRatio="xMidYMid meet">
<metadata>
Created by potrace 1.14, written by Peter Selinger 2001-2017
</metadata>
<g transform="translate(0.000000,401.000000) scale(0.100000,-0.100000)"
fill="#000000" stroke="none">
<path d="M1229 4005 c-2 -1 -56 -6 -119 -9 -454 -25 -701 -115 -866 -314 -65
-80 -105 -153 -143 -268 -38 -115 -56 -209 -76 -399 -26 -247 -26 -1725 0
-2020 50 -564 263 -837 725 -929 69 -14 97 -18 205 -31 238 -28 1911 -29 2096
-1 13 2 47 7 74 10 46 6 67 9 128 20 401 74 633 314 702 726 3 19 8 42 10 50
2 8 7 49 11 90 3 41 8 91 10 110 23 249 24 1722 0 1955 -13 128 -21 185 -37
265 -7 30 -12 60 -13 65 -9 47 -45 144 -77 209 -112 227 -315 368 -606 422
-66 12 -85 15 -163 24 -47 6 -112 13 -145 16 -65 6 -1711 15 -1716 9z"/>
</g>
</svg>
